<svg width="480pt" height="290pt" viewBox="0 0 480 290" version="1.1" xmlns="http://www.w3.org/2000/svg" xmlns:xlink="http://www.w3.org/1999/xlink">
  <g id="surface2">
    <path style=" stroke:none;fill-rule:evenodd;fill:rgb(15.686275%,8.627451%,5.882353%);fill-opacity:1;" d="M 209.351562 66.250000 C 209.550781 67.214844 209.433594 67.949219 209.000000 68.449219 C 208.535156 68.984375 207.964844 69.250000 207.300781 69.250000 C 206.632812 69.285156 206.050781 69.050781 205.550781 68.550781 C 205.082031 68.984375 204.484375 69.214844 203.750000 69.250000 C 203.050781 69.285156 202.484375 69.050781 202.050781 68.550781 C 201.582031 68.984375 201.015625 69.214844 200.351562 69.250000 C 199.683594 69.285156 199.132812 69.050781 198.699219 68.550781 C 198.367188 68.683594 198.117188 68.832031 197.949219 69.000000 C 197.750000 69.167969 197.449219 69.265625 197.050781 69.300781 C 196.550781 69.265625 196.167969 69.117188 195.898438 68.851562 C 195.632812 68.582031 195.398438 68.433594 195.199219 68.398438 C 194.933594 68.433594 194.648438 68.582031 194.351562 68.851562 C 194.082031 69.117188 193.816406 69.265625 193.550781 69.300781 C 192.648438 69.300781 192.000000 68.984375 191.601562 68.351562 C 191.199219 67.750000 191.117188 67.082031 191.351562 66.351562 C 191.582031 65.648438 192.214844 65.167969 193.250000 64.898438 C 193.851562 64.167969 194.515625 63.500000 195.250000 62.898438 C 196.015625 62.332031 196.964844 61.933594 198.101562 61.699219 C 198.332031 61.300781 198.734375 61.015625 199.300781 60.851562 C 199.898438 60.648438 200.484375 60.601562 201.050781 60.699219 C 201.648438 60.800781 202.082031 61.082031 202.351562 61.550781 C 203.917969 61.949219 205.199219 62.617188 206.199219 63.550781 C 207.234375 64.484375 208.285156 65.382812 209.351562 66.250000 "/>
    <path style=" stroke:none;fill-rule:evenodd;fill:rgb(15.686275%,8.627451%,5.882353%);fill-opacity:1;" d="M 206.449219 70.199219 C 206.148438 71.535156 205.832031 72.867188 205.500000 74.199219 C 205.167969 75.500000 204.882812 76.851562 204.648438 78.250000 C 201.785156 78.250000 198.933594 78.250000 196.101562 78.250000 C 195.765625 76.949219 195.433594 75.632812 195.101562 74.300781 C 194.765625 73.000000 194.500000 71.632812 194.300781 70.199219 C 198.332031 70.199219 202.382812 70.199219 206.449219 70.199219 "/>
    <path style=" stroke:none;fill-rule:evenodd;fill:rgb(15.686275%,8.627451%,5.882353%);fill-opacity:1;" d="M 302.500000 101.898438 C 300.464844 101.800781 299.015625 102.300781 298.148438 103.398438 C 297.316406 104.535156 296.750000 105.917969 296.449219 107.550781 C 296.117188 109.183594 295.734375 110.765625 295.300781 112.300781 C 294.867188 113.800781 294.015625 114.898438 292.750000 115.601562 C 291.851562 115.000000 291.015625 114.851562 290.250000 115.148438 C 289.449219 115.449219 288.683594 115.882812 287.949219 116.449219 C 287.214844 117.015625 286.417969 117.382812 285.550781 117.550781 C 283.648438 115.683594 281.933594 113.632812 280.398438 111.398438 C 278.867188 109.167969 277.285156 106.984375 275.648438 104.851562 C 274.015625 102.714844 272.117188 100.867188 269.949219 99.300781 C 268.417969 97.500000 267.066406 95.316406 265.898438 92.750000 C 264.765625 90.183594 263.601562 87.484375 262.398438 84.648438 C 261.234375 81.785156 259.832031 79.066406 258.199219 76.500000 C 257.535156 75.535156 256.734375 74.667969 255.800781 73.898438 C 254.867188 73.167969 253.964844 72.433594 253.101562 71.699219 C 252.199219 70.964844 251.500000 70.167969 251.000000 69.300781 C 250.035156 67.398438 249.617188 65.667969 249.750000 64.101562 C 249.882812 62.535156 250.351562 61.066406 251.148438 59.699219 C 251.917969 58.332031 252.800781 56.984375 253.800781 55.648438 C 254.765625 54.285156 255.601562 52.867188 256.300781 51.398438 C 257.035156 49.933594 257.398438 48.316406 257.398438 46.550781 C 257.367188 44.816406 256.765625 42.851562 255.601562 40.648438 C 257.234375 40.050781 258.500000 40.000000 259.398438 40.500000 C 260.265625 41.000000 260.898438 41.867188 261.300781 43.101562 C 261.667969 44.332031 261.917969 45.714844 262.050781 47.250000 C 262.214844 48.816406 262.367188 50.351562 262.500000 51.851562 C 262.667969 53.316406 262.964844 54.582031 263.398438 55.648438 C 264.265625 56.816406 265.515625 57.566406 267.148438 57.898438 C 268.785156 58.199219 270.449219 58.183594 272.148438 57.851562 C 273.851562 57.515625 275.250000 56.933594 276.351562 56.101562 C 277.449219 55.234375 277.917969 54.199219 277.750000 53.000000 C 277.214844 53.398438 276.515625 53.515625 275.648438 53.351562 C 274.750000 53.183594 273.984375 52.785156 273.351562 52.148438 C 272.683594 51.515625 272.417969 50.714844 272.550781 49.750000 C 272.917969 50.214844 273.382812 50.550781 273.949219 50.750000 C 274.550781 50.984375 275.148438 51.035156 275.750000 50.898438 C 276.316406 50.765625 276.765625 50.382812 277.101562 49.750000 C 275.367188 49.148438 274.101562 48.082031 273.300781 46.550781 C 272.464844 45.015625 271.816406 43.332031 271.351562 41.500000 C 270.882812 39.632812 270.285156 37.898438 269.550781 36.300781 C 268.816406 34.699219 267.632812 33.535156 266.000000 32.800781 C 265.234375 32.566406 264.398438 32.464844 263.500000 32.500000 C 262.601562 32.500000 261.832031 32.550781 261.199219 32.648438 C 260.535156 32.750000 260.183594 32.800781 260.148438 32.800781 C 259.117188 33.199219 258.199219 33.734375 257.398438 34.398438 C 256.601562 35.066406 255.816406 35.734375 255.050781 36.398438 C 254.250000 37.066406 253.351562 37.617188 252.351562 38.050781 C 250.917969 36.582031 249.117188 35.550781 246.949219 34.949219 C 244.785156 34.351562 242.500000 34.132812 240.101562 34.300781 C 237.734375 34.464844 235.500000 34.964844 233.398438 35.800781 C 231.300781 36.632812 229.617188 37.765625 228.351562 39.199219 C 227.082031 40.601562 226.484375 42.250000 226.550781 44.148438 C 226.617188 46.050781 227.601562 48.132812 229.500000 50.398438 C 230.398438 50.566406 231.132812 50.515625 231.699219 50.250000 C 232.265625 49.984375 232.785156 49.867188 233.250000 49.898438 C 233.285156 50.300781 233.332031 50.785156 233.398438 51.351562 C 233.464844 51.882812 233.566406 52.398438 233.699219 52.898438 C 233.667969 52.898438 233.667969 52.898438 233.699219 52.898438 C 233.632812 53.199219 233.582031 53.515625 233.550781 53.851562 C 233.214844 54.382812 232.785156 54.867188 232.250000 55.300781 C 231.714844 55.734375 231.417969 56.132812 231.351562 56.500000 C 231.382812 56.765625 231.550781 56.949219 231.851562 57.050781 C 232.183594 57.148438 232.449219 57.285156 232.648438 57.449219 C 232.882812 57.582031 232.851562 57.882812 232.550781 58.351562 C 232.515625 58.351562 232.535156 58.515625 232.601562 58.851562 C 232.632812 59.183594 232.816406 59.515625 233.148438 59.851562 C 233.117188 59.851562 233.050781 59.984375 232.949219 60.250000 C 232.882812 60.515625 232.964844 60.832031 233.199219 61.199219 C 233.464844 61.535156 233.699219 61.832031 233.898438 62.101562 C 234.066406 62.367188 234.132812 62.714844 234.101562 63.148438 C 234.066406 63.484375 234.148438 63.765625 234.351562 64.000000 C 234.582031 64.234375 234.800781 64.417969 235.000000 64.550781 C 235.234375 64.683594 235.367188 64.750000 235.398438 64.750000 C 236.800781 64.917969 238.000000 64.882812 239.000000 64.648438 C 240.000000 64.417969 240.933594 64.117188 241.800781 63.750000 C 242.632812 63.382812 243.535156 63.066406 244.500000 62.800781 C 244.667969 63.765625 244.667969 64.550781 244.500000 65.148438 C 244.300781 65.750000 244.050781 66.316406 243.750000 66.851562 C 243.484375 67.351562 243.300781 67.949219 243.199219 68.648438 C 241.332031 68.750000 239.933594 69.000000 239.000000 69.398438 C 238.035156 69.832031 237.332031 70.367188 236.898438 71.000000 C 236.433594 71.632812 236.035156 72.316406 235.699219 73.050781 C 235.367188 73.816406 234.882812 74.566406 234.250000 75.300781 C 232.683594 75.500000 231.500000 75.832031 230.699219 76.300781 C 229.933594 76.800781 229.265625 77.566406 228.699219 78.601562 C 228.234375 79.566406 228.082031 80.464844 228.250000 81.300781 C 228.417969 82.132812 228.648438 82.898438 228.949219 83.601562 C 229.214844 84.265625 229.332031 84.816406 229.300781 85.250000 C 229.035156 86.484375 228.699219 87.582031 228.300781 88.550781 C 227.933594 89.515625 227.464844 90.484375 226.898438 91.449219 C 226.332031 92.417969 225.683594 93.500000 224.949219 94.699219 C 222.484375 93.832031 220.167969 92.832031 218.000000 91.699219 C 215.800781 90.566406 213.933594 89.101562 212.398438 87.300781 C 210.867188 85.500000 209.832031 83.199219 209.300781 80.398438 L 208.750000 78.000000 C 208.316406 77.566406 207.898438 77.449219 207.500000 77.648438 C 207.066406 77.882812 206.433594 78.183594 205.601562 78.550781 C 204.800781 78.949219 203.566406 79.214844 201.898438 79.351562 C 200.234375 79.515625 197.949219 79.316406 195.050781 78.750000 C 194.484375 78.617188 194.132812 78.566406 194.000000 78.601562 C 193.898438 78.632812 193.882812 78.683594 193.949219 78.750000 C 194.015625 78.816406 194.066406 78.851562 194.101562 78.851562 C 194.699219 79.683594 195.667969 80.265625 197.000000 80.601562 C 198.332031 80.964844 199.734375 81.167969 201.199219 81.199219 C 202.699219 81.265625 203.964844 81.265625 205.000000 81.199219 C 206.066406 81.132812 206.617188 81.082031 206.648438 81.050781 C 208.015625 85.117188 209.683594 88.601562 211.648438 91.500000 C 213.617188 94.398438 215.550781 96.750000 217.449219 98.550781 C 219.382812 100.382812 221.000000 101.734375 222.300781 102.601562 C 223.601562 103.433594 224.265625 103.851562 224.300781 103.851562 C 225.132812 103.417969 225.949219 102.734375 226.750000 101.800781 C 227.550781 100.867188 228.285156 100.000000 228.949219 99.199219 C 229.648438 98.398438 230.285156 98.000000 230.851562 98.000000 C 228.714844 101.964844 226.648438 106.265625 224.648438 110.898438 C 222.648438 115.535156 220.933594 120.464844 219.500000 125.699219 C 218.035156 130.964844 217.035156 136.500000 216.500000 142.300781 C 216.167969 146.265625 215.750000 150.167969 215.250000 154.000000 C 217.683594 155.199219 220.765625 156.316406 224.500000 157.351562 C 228.234375 158.351562 232.667969 159.000000 237.800781 159.300781 C 242.898438 159.601562 248.734375 159.265625 255.300781 158.300781 C 253.398438 156.699219 251.648438 154.917969 250.050781 152.949219 C 248.417969 150.984375 247.148438 148.800781 246.250000 146.398438 C 245.351562 144.000000 244.984375 141.332031 245.148438 138.398438 C 247.285156 144.933594 250.332031 150.582031 254.300781 155.351562 C 254.765625 155.015625 255.132812 154.582031 255.398438 154.050781 C 255.667969 153.550781 255.949219 153.050781 256.250000 152.550781 C 256.550781 152.050781 256.984375 151.667969 257.550781 151.398438 C 257.550781 150.667969 257.367188 150.132812 257.000000 149.800781 C 256.632812 149.433594 256.234375 149.101562 255.800781 148.800781 C 255.398438 148.500000 255.117188 148.066406 254.949219 147.500000 C 255.117188 147.464844 255.500000 147.750000 256.101562 148.351562 C 256.734375 148.949219 257.515625 149.667969 258.449219 150.500000 C 259.417969 151.332031 260.433594 152.101562 261.500000 152.800781 C 262.566406 153.464844 263.632812 153.882812 264.699219 154.050781 C 265.601562 153.984375 266.234375 153.667969 266.601562 153.101562 C 266.964844 152.500000 267.214844 151.816406 267.351562 151.050781 C 267.515625 150.250000 267.714844 149.500000 267.949219 148.800781 C 263.484375 148.199219 259.933594 146.714844 257.300781 144.351562 C 254.632812 141.949219 252.535156 138.984375 251.000000 135.449219 C 249.500000 131.917969 248.234375 128.148438 247.199219 124.148438 C 246.167969 120.117188 245.050781 116.167969 243.851562 112.300781 C 245.148438 112.800781 246.300781 112.765625 247.300781 112.199219 C 248.265625 111.632812 249.050781 110.750000 249.648438 109.550781 C 250.250000 108.316406 250.632812 106.949219 250.800781 105.449219 C 251.000000 103.984375 250.949219 102.566406 250.648438 101.199219 C 250.382812 99.867188 249.851562 98.800781 249.050781 98.000000 C 247.484375 98.199219 246.183594 98.234375 245.148438 98.101562 C 244.117188 97.964844 243.214844 98.035156 242.449219 98.300781 C 241.648438 98.535156 240.816406 99.300781 239.949219 100.601562 C 240.617188 99.101562 241.765625 97.632812 243.398438 96.199219 C 245.066406 94.765625 246.882812 93.382812 248.851562 92.050781 C 250.816406 90.714844 252.632812 89.433594 254.300781 88.199219 C 257.933594 94.332031 262.117188 99.917969 266.851562 104.949219 C 271.582031 109.984375 276.734375 114.617188 282.300781 118.851562 C 282.898438 119.550781 283.117188 120.632812 282.949219 122.101562 C 283.484375 122.566406 284.082031 122.949219 284.750000 123.250000 C 285.449219 123.550781 286.367188 123.601562 287.500000 123.398438 C 286.933594 124.101562 286.714844 125.183594 286.851562 126.648438 C 288.148438 126.449219 289.050781 125.832031 289.550781 124.800781 C 290.050781 123.765625 290.464844 122.648438 290.800781 121.449219 C 291.167969 122.250000 291.582031 122.550781 292.050781 122.351562 C 292.550781 122.183594 293.066406 121.832031 293.601562 121.300781 C 294.167969 120.765625 294.750000 120.382812 295.351562 120.148438 C 294.582031 118.550781 294.433594 117.132812 294.898438 115.898438 C 295.367188 114.699219 296.183594 113.582031 297.351562 112.550781 C 298.484375 111.550781 299.667969 110.566406 300.898438 109.601562 C 302.101562 108.632812 303.066406 107.582031 303.800781 106.449219 C 303.964844 106.183594 304.132812 105.816406 304.300781 105.351562 C 304.464844 104.882812 304.449219 104.351562 304.250000 103.750000 C 304.015625 103.148438 303.433594 102.535156 302.500000 101.898438 "/>
    <path style=" stroke:none;fill-rule:evenodd;fill:rgb(59.215686%,78.431373%,76.862745%);fill-opacity:1;" d="M 242.398438 162.898438 C 234.734375 162.867188 227.464844 161.699219 220.601562 159.398438 C 213.699219 157.066406 207.382812 153.800781 201.648438 149.601562 C 195.917969 145.367188 190.933594 140.382812 186.699219 134.648438 C 182.500000 128.917969 179.234375 122.601562 176.898438 115.699219 C 174.601562 108.800781 173.433594 101.515625 173.398438 93.851562 C 173.433594 86.183594 174.601562 78.917969 176.898438 72.050781 C 179.234375 65.148438 182.500000 58.832031 186.699219 53.101562 C 190.933594 47.367188 195.917969 42.382812 201.648438 38.148438 C 207.382812 33.949219 213.699219 30.683594 220.601562 28.351562 C 227.500000 26.050781 234.765625 24.882812 242.398438 24.851562 C 250.066406 24.882812 257.351562 26.050781 264.250000 28.351562 C 271.117188 30.683594 277.433594 33.949219 283.199219 38.148438 C 288.933594 42.382812 293.917969 47.367188 298.148438 53.101562 C 302.351562 58.832031 305.617188 65.148438 307.949219 72.050781 C 310.250000 78.949219 311.417969 86.214844 311.449219 93.851562 C 311.417969 101.515625 310.250000 108.800781 307.949219 115.699219 C 305.617188 122.566406 302.351562 128.882812 298.148438 134.648438 C 293.917969 140.382812 288.933594 145.367188 283.199219 149.601562 C 277.464844 153.800781 271.148438 157.066406 264.250000 159.398438 C 257.351562 161.699219 250.066406 162.867188 242.398438 162.898438 M 242.398438 18.101562 C 234.000000 18.132812 226.015625 19.417969 218.449219 21.949219 C 210.882812 24.484375 203.949219 28.066406 197.648438 32.699219 C 191.351562 37.332031 185.882812 42.800781 181.250000 49.101562 C 176.617188 55.433594 173.035156 62.367188 170.500000 69.898438 C 167.964844 77.464844 166.683594 85.449219 166.648438 93.851562 C 166.683594 102.250000 167.964844 110.234375 170.500000 117.800781 C 173.035156 125.367188 176.617188 132.300781 181.250000 138.601562 C 185.882812 144.933594 191.351562 150.417969 197.648438 155.050781 C 203.984375 159.648438 210.917969 163.234375 218.449219 165.800781 C 226.015625 168.332031 234.000000 169.617188 242.398438 169.648438 C 250.800781 169.617188 258.785156 168.332031 266.351562 165.800781 C 273.917969 163.234375 280.851562 159.648438 287.148438 155.050781 C 293.484375 150.417969 298.949219 144.933594 303.550781 138.601562 C 308.183594 132.300781 311.785156 125.367188 314.351562 117.800781 C 316.882812 110.265625 318.167969 102.285156 318.199219 93.851562 C 318.167969 85.449219 316.882812 77.464844 314.351562 69.898438 C 311.785156 62.332031 308.199219 55.398438 303.601562 49.101562 C 298.964844 42.800781 293.484375 37.332031 287.148438 32.699219 C 280.851562 28.066406 273.917969 24.484375 266.351562 21.949219 C 258.816406 19.417969 250.832031 18.132812 242.398438 18.101562 "/>
    <path style=" stroke:none;fill-rule:evenodd;fill:rgb(15.686275%,8.627451%,5.882353%);fill-opacity:1;" d="M 355.050781 163.699219 C 354.082031 163.066406 353.601562 162.117188 353.601562 160.851562 C 353.601562 159.250000 354.316406 158.183594 355.750000 157.648438 C 356.351562 157.449219 356.933594 157.382812 357.500000 157.449219 C 358.066406 157.550781 358.500000 157.785156 358.800781 158.148438 C 359.167969 158.648438 359.148438 159.234375 358.750000 159.898438 C 358.750000 159.867188 358.683594 159.683594 358.550781 159.351562 C 358.417969 159.015625 358.300781 158.765625 358.199219 158.601562 C 358.035156 158.398438 357.734375 158.285156 357.300781 158.250000 C 356.898438 158.183594 356.464844 158.214844 356.000000 158.351562 C 355.667969 158.449219 355.316406 158.683594 354.949219 159.050781 C 354.582031 159.449219 354.382812 160.050781 354.351562 160.851562 C 354.351562 161.851562 354.714844 162.582031 355.449219 163.050781 C 356.050781 163.417969 356.765625 163.566406 357.601562 163.500000 C 358.433594 163.398438 359.265625 163.167969 360.101562 162.800781 C 361.367188 162.234375 362.250000 161.550781 362.750000 160.750000 C 363.250000 159.917969 363.464844 158.949219 363.398438 157.851562 C 363.300781 156.148438 362.683594 154.484375 361.550781 152.851562 C 360.417969 151.183594 359.050781 149.734375 357.449219 148.500000 C 355.851562 147.265625 354.285156 146.433594 352.750000 146.000000 C 348.617188 144.898438 344.648438 144.683594 340.851562 145.351562 C 337.050781 146.015625 333.632812 147.785156 330.601562 150.648438 C 328.566406 152.617188 326.398438 154.500000 324.101562 156.300781 C 321.832031 158.101562 319.382812 159.683594 316.750000 161.050781 C 314.148438 162.417969 311.382812 163.449219 308.449219 164.148438 C 306.515625 164.617188 304.464844 164.714844 302.300781 164.449219 C 300.132812 164.214844 297.964844 163.617188 295.800781 162.648438 C 294.632812 162.117188 293.582031 161.316406 292.648438 160.250000 C 291.683594 159.214844 291.148438 158.117188 291.050781 156.949219 C 291.015625 156.449219 291.167969 155.867188 291.500000 155.199219 C 291.867188 154.566406 292.582031 153.933594 293.648438 153.300781 C 293.617188 153.300781 293.464844 153.449219 293.199219 153.750000 C 292.933594 154.082031 292.648438 154.515625 292.351562 155.050781 C 292.050781 155.582031 291.867188 156.214844 291.800781 156.949219 C 291.832031 157.917969 292.285156 158.816406 293.148438 159.648438 C 294.050781 160.484375 295.015625 161.132812 296.050781 161.601562 C 298.148438 162.535156 300.250000 163.132812 302.351562 163.398438 C 304.484375 163.699219 306.464844 163.632812 308.300781 163.199219 C 311.167969 162.500000 313.832031 161.398438 316.300781 159.898438 C 318.734375 158.398438 321.000000 156.667969 323.101562 154.699219 C 325.234375 152.765625 327.250000 150.765625 329.148438 148.699219 C 331.582031 146.167969 334.214844 144.285156 337.050781 143.050781 C 339.882812 141.816406 342.800781 141.167969 345.800781 141.101562 C 348.765625 141.035156 351.683594 141.500000 354.550781 142.500000 C 356.683594 143.265625 358.535156 144.417969 360.101562 145.949219 C 361.667969 147.484375 362.882812 149.214844 363.750000 151.148438 C 364.648438 153.050781 365.132812 154.917969 365.199219 156.750000 C 365.199219 158.082031 364.785156 159.398438 363.949219 160.699219 C 363.117188 162.035156 361.984375 163.035156 360.550781 163.699219 C 359.750000 164.066406 358.832031 164.285156 357.800781 164.351562 C 356.800781 164.417969 355.882812 164.199219 355.050781 163.699219 "/>
    <path style=" stroke:none;fill-rule:evenodd;fill:rgb(15.686275%,8.627451%,5.882353%);fill-opacity:1;" d="M 332.851562 150.500000 C 332.351562 150.464844 331.750000 150.550781 331.050781 150.750000 C 330.351562 150.917969 329.714844 151.167969 329.148438 151.500000 C 328.582031 151.832031 328.234375 152.234375 328.101562 152.699219 L 328.250000 152.750000 C 328.382812 152.316406 328.714844 151.933594 329.250000 151.601562 C 329.816406 151.300781 330.433594 151.066406 331.101562 150.898438 C 331.765625 150.699219 332.351562 150.617188 332.851562 150.648438 C 335.082031 150.750000 336.734375 151.550781 337.800781 153.050781 C 338.367188 153.949219 338.550781 154.832031 338.351562 155.699219 C 338.117188 156.601562 337.535156 157.332031 336.601562 157.898438 C 336.000000 158.199219 335.382812 158.265625 334.750000 158.101562 C 334.082031 157.933594 333.601562 157.632812 333.300781 157.199219 C 332.933594 156.601562 333.101562 156.035156 333.800781 155.500000 C 334.132812 155.265625 334.484375 155.250000 334.851562 155.449219 C 335.214844 155.683594 335.398438 155.964844 335.398438 156.300781 C 335.367188 156.500000 335.214844 156.648438 334.949219 156.750000 L 335.000000 156.851562 C 335.300781 156.750000 335.464844 156.566406 335.500000 156.300781 C 335.535156 155.898438 335.351562 155.566406 334.949219 155.300781 C 334.515625 155.101562 334.101562 155.132812 333.699219 155.398438 C 332.933594 155.964844 332.750000 156.582031 333.148438 157.250000 C 333.484375 157.750000 334.000000 158.082031 334.699219 158.250000 C 335.367188 158.449219 336.015625 158.367188 336.648438 158.000000 C 337.648438 157.433594 338.265625 156.667969 338.500000 155.699219 C 338.699219 154.800781 338.500000 153.898438 337.898438 153.000000 C 336.832031 151.433594 335.148438 150.601562 332.851562 150.500000 "/>
    <path style=" stroke:none;fill-rule:evenodd;fill:rgb(15.686275%,8.627451%,5.882353%);fill-opacity:1;" d="M 346.398438 158.449219 C 346.800781 160.050781 346.765625 161.667969 346.300781 163.300781 C 345.867188 164.964844 345.101562 166.382812 344.000000 167.550781 C 343.066406 168.449219 342.035156 169.050781 340.898438 169.351562 C 339.765625 169.648438 338.582031 169.648438 337.351562 169.351562 C 335.750000 168.917969 334.515625 168.015625 333.648438 166.648438 C 332.785156 165.285156 332.484375 163.765625 332.750000 162.101562 C 332.984375 160.933594 333.535156 160.035156 334.398438 159.398438 C 335.265625 158.765625 336.183594 158.464844 337.148438 158.500000 C 337.984375 158.566406 338.699219 158.867188 339.300781 159.398438 C 339.898438 159.964844 340.234375 160.734375 340.300781 161.699219 C 340.265625 162.101562 340.066406 162.484375 339.699219 162.851562 C 339.300781 163.214844 338.882812 163.464844 338.449219 163.601562 C 338.484375 163.566406 338.667969 163.382812 339.000000 163.050781 C 339.332031 162.714844 339.535156 162.382812 339.601562 162.050781 C 339.601562 161.214844 339.367188 160.535156 338.898438 160.000000 C 338.398438 159.464844 337.800781 159.183594 337.101562 159.148438 C 336.300781 159.117188 335.535156 159.382812 334.800781 159.949219 C 334.066406 160.484375 333.582031 161.234375 333.351562 162.199219 C 333.148438 163.699219 333.433594 165.066406 334.199219 166.300781 C 334.964844 167.535156 336.066406 168.351562 337.500000 168.750000 C 338.632812 169.015625 339.714844 169.015625 340.750000 168.750000 C 341.785156 168.449219 342.699219 167.898438 343.500000 167.101562 C 344.566406 166.000000 345.300781 164.683594 345.699219 163.148438 C 346.101562 161.617188 346.117188 160.117188 345.750000 158.648438 C 344.917969 155.617188 343.382812 153.285156 341.148438 151.648438 C 338.882812 150.050781 336.265625 149.417969 333.300781 149.750000 C 332.332031 149.882812 331.382812 150.214844 330.449219 150.750000 C 329.515625 151.250000 328.683594 151.898438 327.949219 152.699219 C 327.750000 152.566406 327.550781 152.433594 327.351562 152.300781 C 328.117188 151.433594 329.015625 150.714844 330.050781 150.148438 C 331.082031 149.582031 332.132812 149.234375 333.199219 149.101562 C 335.265625 148.867188 337.199219 149.101562 339.000000 149.800781 C 340.800781 150.500000 342.332031 151.582031 343.601562 153.050781 C 344.898438 154.550781 345.832031 156.351562 346.398438 158.449219 "/>
    <path style=" stroke:none;fill-rule:evenodd;fill:rgb(15.686275%,8.627451%,5.882353%);fill-opacity:1;" d="M 339.500000 160.101562 C 339.066406 159.765625 338.601562 159.617188 338.101562 159.648438 C 337.566406 159.683594 337.117188 159.917969 336.750000 160.351562 C 336.417969 160.785156 336.265625 161.250000 336.300781 161.750000 C 336.332031 162.285156 336.566406 162.734375 337.000000 163.101562 C 337.433594 163.433594 337.898438 163.582031 338.398438 163.550781 C 338.933594 163.515625 339.382812 163.285156 339.750000 162.851562 C 340.082031 162.417969 340.234375 161.949219 340.199219 161.449219 C 340.167969 160.917969 339.933594 160.464844 339.500000 160.101562 "/>
    <path style=" stroke:none;fill-rule:evenodd;fill:rgb(15.686275%,8.627451%,5.882353%);fill-opacity:1;" d="M 351.949219 150.199219 C 351.984375 151.132812 351.714844 152.015625 351.148438 152.851562 C 350.582031 153.648438 349.867188 154.183594 349.000000 154.449219 C 348.101562 154.714844 347.199219 154.464844 346.300781 153.699219 C 345.300781 152.765625 344.898438 151.933594 345.101562 151.199219 C 345.265625 150.464844 345.699219 149.949219 346.398438 149.648438 C 347.132812 149.351562 347.816406 149.382812 348.449219 149.750000 C 349.082031 150.148438 349.351562 150.964844 349.250000 152.199219 C 350.285156 151.167969 350.714844 150.148438 350.550781 149.148438 C 350.382812 148.148438 349.882812 147.265625 349.050781 146.500000 C 348.250000 145.765625 347.417969 145.285156 346.550781 145.050781 C 347.949219 145.316406 349.167969 145.851562 350.199219 146.648438 C 351.234375 147.484375 351.816406 148.667969 351.949219 150.199219 "/>
    <path style=" stroke:none;fill-rule:evenodd;fill:rgb(15.686275%,8.627451%,5.882353%);fill-opacity:1;" d="M 324.699219 161.148438 C 324.535156 160.750000 324.265625 160.464844 323.898438 160.300781 C 323.535156 160.132812 323.148438 160.117188 322.750000 160.250000 C 322.351562 160.417969 322.066406 160.683594 321.898438 161.050781 C 321.734375 161.417969 321.714844 161.800781 321.851562 162.199219 C 322.015625 162.601562 322.285156 162.882812 322.648438 163.050781 C 323.015625 163.214844 323.398438 163.234375 323.800781 163.101562 C 324.199219 162.933594 324.484375 162.667969 324.648438 162.300781 C 324.816406 161.933594 324.832031 161.550781 324.699219 161.148438 "/>
    <path style=" stroke:none;fill-rule:evenodd;fill:rgb(15.686275%,8.627451%,5.882353%);fill-opacity:1;" d="M 326.601562 165.050781 C 326.734375 165.617188 326.734375 166.285156 326.601562 167.050781 C 326.500000 167.785156 326.250000 168.449219 325.851562 169.050781 C 325.449219 169.617188 324.933594 169.933594 324.300781 170.000000 C 323.667969 170.066406 323.148438 169.933594 322.750000 169.601562 C 322.515625 169.300781 322.417969 168.949219 322.449219 168.550781 C 322.449219 168.484375 322.464844 168.433594 322.500000 168.398438 C 322.500000 168.398438 322.515625 168.398438 322.550781 168.398438 C 322.550781 168.464844 322.535156 168.515625 322.500000 168.550781 C 322.464844 168.949219 322.566406 169.265625 322.800781 169.500000 C 323.199219 169.867188 323.699219 170.015625 324.300781 169.949219 C 324.898438 169.882812 325.398438 169.566406 325.800781 169.000000 C 326.199219 168.433594 326.449219 167.785156 326.550781 167.050781 C 326.648438 166.285156 326.632812 165.617188 326.500000 165.050781 C 326.167969 163.648438 325.601562 162.601562 324.800781 161.898438 C 323.964844 161.234375 323.148438 160.800781 322.351562 160.601562 C 321.382812 160.332031 320.351562 160.234375 319.250000 160.300781 C 318.183594 160.367188 317.148438 160.582031 316.148438 160.949219 C 316.117188 160.917969 316.101562 160.898438 316.101562 160.898438 C 317.132812 160.535156 318.183594 160.300781 319.250000 160.199219 C 320.351562 160.132812 321.382812 160.234375 322.351562 160.500000 C 323.183594 160.734375 324.015625 161.183594 324.851562 161.851562 C 325.648438 162.550781 326.234375 163.617188 326.601562 165.050781 "/>
    <path style=" stroke:none;fill-rule:evenodd;fill:rgb(15.686275%,8.627451%,5.882353%);fill-opacity:1;" d="M 339.750000 136.000000 C 340.484375 135.300781 341.332031 134.750000 342.300781 134.351562 C 343.234375 133.917969 344.148438 133.683594 345.050781 133.648438 C 345.949219 133.617188 346.714844 133.800781 347.351562 134.199219 C 347.648438 134.398438 347.816406 134.617188 347.851562 134.851562 C 347.917969 135.117188 347.800781 135.367188 347.500000 135.601562 C 347.234375 135.734375 346.964844 135.800781 346.699219 135.800781 C 346.433594 135.800781 346.484375 136.000000 346.851562 136.398438 C 347.316406 136.800781 347.917969 136.964844 348.648438 136.898438 C 349.417969 136.832031 350.066406 136.714844 350.601562 136.550781 C 350.199219 136.882812 349.617188 137.167969 348.851562 137.398438 C 348.050781 137.667969 347.265625 137.785156 346.500000 137.750000 C 345.765625 137.750000 345.250000 137.500000 344.949219 137.000000 C 344.851562 136.734375 344.800781 136.484375 344.800781 136.250000 C 344.800781 136.050781 344.683594 135.867188 344.449219 135.699219 C 343.582031 135.167969 342.785156 134.949219 342.050781 135.050781 C 341.316406 135.117188 340.582031 135.417969 339.851562 135.949219 L 339.750000 136.000000 "/>
    <path style=" stroke:none;fill-rule:evenodd;fill:rgb(15.686275%,8.627451%,5.882353%);fill-opacity:1;" d="M 295.648438 162.000000 L 295.699219 161.550781 C 300.464844 161.949219 304.800781 161.667969 308.699219 160.699219 C 312.566406 159.734375 316.148438 158.050781 319.449219 155.648438 C 321.316406 154.285156 323.015625 152.750000 324.550781 151.050781 C 326.082031 149.382812 327.566406 147.683594 329.000000 145.949219 C 330.066406 144.648438 331.167969 143.351562 332.300781 142.050781 C 333.433594 140.750000 334.632812 139.515625 335.898438 138.351562 C 336.535156 137.785156 337.316406 137.167969 338.250000 136.500000 C 339.183594 135.867188 340.183594 135.367188 341.250000 135.000000 C 342.351562 134.632812 343.449219 134.566406 344.550781 134.800781 L 344.449219 135.199219 C 343.417969 135.000000 342.382812 135.082031 341.351562 135.449219 C 340.316406 135.816406 339.351562 136.300781 338.449219 136.898438 C 337.550781 137.535156 336.800781 138.132812 336.199219 138.699219 C 334.933594 139.832031 333.734375 141.050781 332.601562 142.351562 C 331.464844 143.617188 330.382812 144.917969 329.351562 146.250000 C 327.917969 147.984375 326.417969 149.699219 324.851562 151.398438 C 323.316406 153.066406 321.617188 154.601562 319.750000 156.000000 C 316.382812 158.433594 312.734375 160.132812 308.800781 161.101562 C 304.867188 162.101562 300.484375 162.398438 295.648438 162.000000 "/>
    <path style=" stroke:none;fill-rule:evenodd;fill:rgb(15.686275%,8.627451%,5.882353%);fill-opacity:1;" d="M 293.449219 160.351562 C 295.382812 161.449219 297.214844 161.832031 298.949219 161.500000 C 300.648438 161.167969 302.234375 160.367188 303.699219 159.101562 C 305.167969 157.867188 306.484375 156.398438 307.648438 154.699219 C 308.785156 153.035156 309.785156 151.398438 310.648438 149.800781 C 311.582031 147.964844 312.765625 146.433594 314.199219 145.199219 C 315.632812 143.964844 317.433594 143.148438 319.601562 142.750000 C 320.566406 142.648438 321.734375 142.765625 323.101562 143.101562 C 324.433594 143.464844 325.734375 143.734375 327.000000 143.898438 C 328.265625 144.101562 329.285156 143.917969 330.050781 143.351562 C 329.148438 144.515625 328.234375 145.332031 327.300781 145.800781 C 326.367188 146.265625 325.382812 146.582031 324.351562 146.750000 C 323.316406 146.949219 322.214844 147.265625 321.050781 147.699219 C 319.882812 148.167969 318.933594 148.898438 318.199219 149.898438 C 317.464844 150.933594 316.800781 152.000000 316.199219 153.101562 C 315.566406 154.199219 314.832031 155.148438 314.000000 155.949219 C 310.933594 158.582031 308.148438 160.332031 305.648438 161.199219 C 303.148438 162.035156 300.984375 162.367188 299.148438 162.199219 C 297.351562 162.000000 295.949219 161.667969 294.949219 161.199219 C 293.949219 160.699219 293.449219 160.417969 293.449219 160.351562 "/>
    <path style=" stroke:none;fill-rule:evenodd;fill:rgb(15.686275%,8.627451%,5.882353%);fill-opacity:1;" d="M 302.500000 161.101562 C 304.199219 160.265625 305.617188 159.300781 306.750000 158.199219 C 307.882812 157.132812 308.964844 155.851562 310.000000 154.351562 C 310.667969 153.351562 311.265625 152.367188 311.800781 151.398438 C 312.367188 150.433594 313.015625 149.582031 313.750000 148.851562 C 314.484375 148.117188 315.484375 147.566406 316.750000 147.199219 C 317.250000 147.066406 317.800781 146.917969 318.398438 146.750000 C 319.000000 146.582031 319.648438 146.535156 320.351562 146.601562 C 319.550781 146.867188 318.800781 147.199219 318.101562 147.601562 C 317.367188 148.035156 316.699219 148.433594 316.101562 148.800781 C 315.433594 149.300781 314.851562 149.898438 314.351562 150.601562 C 313.882812 151.332031 313.433594 152.066406 313.000000 152.800781 C 311.464844 155.132812 309.898438 156.898438 308.300781 158.101562 C 306.699219 159.300781 305.351562 160.101562 304.250000 160.500000 C 303.117188 160.933594 302.535156 161.132812 302.500000 161.101562 "/>
    <path style=" stroke:none;fill-rule:evenodd;fill:rgb(15.686275%,8.627451%,5.882353%);fill-opacity:1;" d="M 304.550781 164.351562 C 305.316406 164.351562 306.316406 164.433594 307.550781 164.601562 C 308.750000 164.734375 309.964844 164.964844 311.199219 165.300781 C 312.433594 165.632812 313.484375 166.101562 314.351562 166.699219 C 315.214844 167.265625 315.667969 167.964844 315.699219 168.800781 C 315.765625 169.667969 315.234375 170.683594 314.101562 171.851562 C 313.601562 172.285156 312.933594 172.734375 312.101562 173.199219 C 311.234375 173.632812 310.515625 174.148438 309.949219 174.750000 C 309.382812 175.351562 309.285156 176.082031 309.648438 176.949219 C 310.082031 177.714844 310.832031 178.148438 311.898438 178.250000 C 312.964844 178.316406 314.082031 178.250000 315.250000 178.050781 C 316.382812 177.816406 317.300781 177.648438 318.000000 177.550781 C 317.234375 177.882812 316.148438 178.199219 314.750000 178.500000 C 313.351562 178.765625 311.898438 178.898438 310.398438 178.898438 C 308.898438 178.867188 307.601562 178.566406 306.500000 178.000000 C 305.398438 177.433594 304.765625 176.449219 304.601562 175.050781 C 304.535156 173.917969 304.882812 173.117188 305.648438 172.648438 C 306.417969 172.183594 307.285156 171.832031 308.250000 171.601562 C 309.250000 171.367188 310.066406 171.015625 310.699219 170.550781 C 311.667969 169.617188 311.949219 168.699219 311.550781 167.800781 C 311.183594 166.933594 310.398438 166.250000 309.199219 165.750000 L 304.550781 164.351562 "/>
    <path style=" stroke:none;fill-rule:evenodd;fill:rgb(15.686275%,8.627451%,5.882353%);fill-opacity:1;" d="M 128.000000 163.699219 C 128.933594 163.066406 129.417969 162.117188 129.449219 160.851562 C 129.417969 159.250000 128.699219 158.183594 127.300781 157.648438 C 126.699219 157.449219 126.117188 157.382812 125.550781 157.449219 C 124.984375 157.550781 124.550781 157.785156 124.250000 158.148438 C 123.851562 158.648438 123.867188 159.234375 124.300781 159.898438 C 124.300781 159.867188 124.367188 159.683594 124.500000 159.351562 C 124.632812 159.015625 124.750000 158.765625 124.851562 158.601562 C 125.015625 158.398438 125.300781 158.285156 125.699219 158.250000 C 126.101562 158.183594 126.550781 158.214844 127.050781 158.351562 C 127.382812 158.449219 127.734375 158.683594 128.101562 159.050781 C 128.464844 159.449219 128.667969 160.050781 128.699219 160.851562 C 128.667969 161.851562 128.285156 162.582031 127.550781 163.050781 C 126.984375 163.417969 126.285156 163.566406 125.449219 163.500000 C 124.617188 163.398438 123.765625 163.167969 122.898438 162.800781 C 121.667969 162.234375 120.800781 161.550781 120.300781 160.750000 C 119.800781 159.917969 119.582031 158.949219 119.648438 157.851562 C 119.750000 156.148438 120.367188 154.484375 121.500000 152.851562 C 122.632812 151.183594 124.000000 149.734375 125.601562 148.500000 C 127.199219 147.265625 128.765625 146.433594 130.300781 146.000000 C 134.398438 144.898438 138.351562 144.683594 142.148438 145.351562 C 145.949219 146.015625 149.382812 147.785156 152.449219 150.648438 C 154.484375 152.617188 156.632812 154.500000 158.898438 156.300781 C 161.199219 158.101562 163.648438 159.683594 166.250000 161.050781 C 168.882812 162.417969 171.667969 163.449219 174.601562 164.148438 C 176.500000 164.617188 178.535156 164.714844 180.699219 164.449219 C 182.867188 164.214844 185.050781 163.617188 187.250000 162.648438 C 188.382812 162.117188 189.433594 161.316406 190.398438 160.250000 C 191.367188 159.214844 191.898438 158.117188 192.000000 156.949219 C 192.035156 156.449219 191.882812 155.867188 191.550781 155.199219 C 191.183594 154.566406 190.464844 153.933594 189.398438 153.300781 C 189.398438 153.300781 189.550781 153.449219 189.851562 153.750000 C 190.117188 154.082031 190.398438 154.515625 190.699219 155.050781 C 191.000000 155.582031 191.167969 156.214844 191.199219 156.949219 C 191.199219 157.917969 190.765625 158.816406 189.898438 159.648438 C 189.000000 160.484375 188.035156 161.132812 187.000000 161.601562 C 184.898438 162.535156 182.785156 163.132812 180.648438 163.398438 C 178.550781 163.699219 176.582031 163.632812 174.750000 163.199219 C 171.882812 162.500000 169.214844 161.398438 166.750000 159.898438 C 164.316406 158.398438 162.035156 156.667969 159.898438 154.699219 C 157.800781 152.765625 155.800781 150.765625 153.898438 148.699219 C 151.464844 146.167969 148.832031 144.285156 146.000000 143.050781 C 143.167969 141.816406 140.250000 141.167969 137.250000 141.101562 C 134.250000 141.035156 131.332031 141.500000 128.500000 142.500000 C 126.367188 143.265625 124.515625 144.417969 122.949219 145.949219 C 121.382812 147.484375 120.148438 149.214844 119.250000 151.148438 C 118.382812 153.050781 117.917969 154.917969 117.851562 156.750000 C 117.816406 158.082031 118.234375 159.398438 119.101562 160.699219 C 119.933594 162.035156 121.066406 163.035156 122.500000 163.699219 C 123.300781 164.066406 124.214844 164.285156 125.250000 164.351562 C 126.250000 164.417969 127.167969 164.199219 128.000000 163.699219 "/>
    <path style=" stroke:none;fill-rule:evenodd;fill:rgb(15.686275%,8.627451%,5.882353%);fill-opacity:1;" d="M 150.199219 150.500000 C 150.734375 150.464844 151.332031 150.550781 152.000000 150.750000 C 152.699219 150.917969 153.332031 151.167969 153.898438 151.500000 C 154.464844 151.832031 154.816406 152.234375 154.949219 152.699219 L 154.800781 152.750000 C 154.667969 152.316406 154.332031 151.933594 153.800781 151.601562 C 153.234375 151.300781 152.617188 151.066406 151.949219 150.898438 C 151.285156 150.699219 150.699219 150.617188 150.199219 150.648438 C 147.964844 150.750000 146.332031 151.550781 145.300781 153.050781 C 144.699219 153.949219 144.500000 154.832031 144.699219 155.699219 C 144.933594 156.601562 145.515625 157.332031 146.449219 157.898438 C 147.050781 158.199219 147.667969 158.265625 148.300781 158.101562 C 148.964844 157.933594 149.449219 157.632812 149.750000 157.199219 C 150.148438 156.601562 150.000000 156.035156 149.300781 155.500000 C 148.933594 155.265625 148.566406 155.250000 148.199219 155.449219 C 147.867188 155.683594 147.699219 155.964844 147.699219 156.300781 C 147.699219 156.500000 147.832031 156.648438 148.101562 156.750000 L 148.050781 156.851562 C 147.750000 156.750000 147.582031 156.566406 147.550781 156.300781 C 147.550781 155.898438 147.750000 155.566406 148.148438 155.300781 C 148.550781 155.101562 148.949219 155.132812 149.351562 155.398438 C 150.117188 155.964844 150.300781 156.582031 149.898438 157.250000 C 149.566406 157.750000 149.050781 158.082031 148.351562 158.250000 C 147.683594 158.449219 147.035156 158.367188 146.398438 158.000000 C 145.398438 157.433594 144.800781 156.667969 144.601562 155.699219 C 144.367188 154.800781 144.550781 153.898438 145.148438 153.000000 C 146.214844 151.433594 147.898438 150.601562 150.199219 150.500000 "/>
    <path style=" stroke:none;fill-rule:evenodd;fill:rgb(15.686275%,8.627451%,5.882353%);fill-opacity:1;" d="M 136.648438 158.449219 C 136.285156 160.050781 136.316406 161.667969 136.750000 163.300781 C 137.183594 164.964844 137.964844 166.382812 139.101562 167.550781 C 140.000000 168.449219 141.015625 169.050781 142.148438 169.351562 C 143.285156 169.648438 144.484375 169.648438 145.750000 169.351562 C 147.316406 168.917969 148.535156 168.015625 149.398438 166.648438 C 150.265625 165.285156 150.582031 163.765625 150.351562 162.101562 C 150.082031 160.933594 149.515625 160.035156 148.648438 159.398438 C 147.785156 158.765625 146.882812 158.464844 145.949219 158.500000 C 145.082031 158.566406 144.351562 158.867188 143.750000 159.398438 C 143.148438 159.964844 142.832031 160.734375 142.800781 161.699219 C 142.800781 162.101562 143.000000 162.484375 143.398438 162.851562 C 143.800781 163.214844 144.214844 163.464844 144.648438 163.601562 C 144.617188 163.566406 144.433594 163.382812 144.101562 163.050781 C 143.765625 162.714844 143.566406 162.382812 143.500000 162.050781 C 143.464844 161.214844 143.699219 160.535156 144.199219 160.000000 C 144.699219 159.464844 145.285156 159.183594 145.949219 159.148438 C 146.750000 159.117188 147.535156 159.382812 148.300781 159.949219 C 149.035156 160.484375 149.500000 161.234375 149.699219 162.199219 C 149.933594 163.699219 149.648438 165.066406 148.851562 166.300781 C 148.082031 167.535156 146.984375 168.351562 145.550781 168.750000 C 144.417969 169.015625 143.332031 169.015625 142.300781 168.750000 C 141.300781 168.449219 140.382812 167.898438 139.550781 167.101562 C 138.515625 166.000000 137.785156 164.683594 137.351562 163.148438 C 136.949219 161.617188 136.933594 160.117188 137.300781 158.648438 C 138.132812 155.617188 139.683594 153.285156 141.949219 151.648438 C 144.214844 150.050781 146.816406 149.417969 149.750000 149.750000 C 150.750000 149.882812 151.714844 150.214844 152.648438 150.750000 C 153.582031 151.250000 154.398438 151.898438 155.101562 152.699219 C 155.300781 152.566406 155.500000 152.433594 155.699219 152.300781 C 154.933594 151.433594 154.035156 150.714844 153.000000 150.148438 C 151.964844 149.582031 150.917969 149.234375 149.851562 149.101562 C 147.785156 148.867188 145.851562 149.101562 144.050781 149.800781 C 142.285156 150.500000 140.750000 151.582031 139.449219 153.050781 C 138.148438 154.550781 137.214844 156.351562 136.648438 158.449219 "/>
    <path style=" stroke:none;fill-rule:evenodd;fill:rgb(15.686275%,8.627451%,5.882353%);fill-opacity:1;" d="M 143.601562 160.101562 C 144.035156 159.765625 144.500000 159.617188 145.000000 159.648438 C 145.535156 159.683594 145.984375 159.917969 146.351562 160.351562 C 146.683594 160.785156 146.832031 161.250000 146.800781 161.750000 C 146.765625 162.285156 146.535156 162.734375 146.101562 163.101562 C 145.667969 163.433594 145.199219 163.582031 144.699219 163.550781 C 144.167969 163.515625 143.714844 163.285156 143.351562 162.851562 C 143.015625 162.417969 142.867188 161.949219 142.898438 161.449219 C 142.933594 160.917969 143.167969 160.464844 143.601562 160.101562 "/>
    <path style=" stroke:none;fill-rule:evenodd;fill:rgb(15.686275%,8.627451%,5.882353%);fill-opacity:1;" d="M 131.101562 150.199219 C 131.066406 151.132812 131.332031 152.015625 131.898438 152.851562 C 132.464844 153.648438 133.183594 154.183594 134.050781 154.449219 C 134.949219 154.714844 135.851562 154.464844 136.750000 153.699219 C 137.750000 152.765625 138.167969 151.933594 138.000000 151.199219 C 137.800781 150.464844 137.351562 149.949219 136.648438 149.648438 C 135.949219 149.351562 135.285156 149.382812 134.648438 149.750000 C 134.015625 150.148438 133.734375 150.964844 133.800781 152.199219 C 132.765625 151.167969 132.332031 150.148438 132.500000 149.148438 C 132.699219 148.148438 133.199219 147.265625 134.000000 146.500000 C 134.800781 145.765625 135.632812 145.285156 136.500000 145.050781 C 135.101562 145.316406 133.882812 145.851562 132.851562 146.648438 C 131.816406 147.484375 131.234375 148.667969 131.101562 150.199219 "/>
    <path style=" stroke:none;fill-rule:evenodd;fill:rgb(15.686275%,8.627451%,5.882353%);fill-opacity:1;" d="M 158.351562 161.148438 C 158.515625 160.750000 158.785156 160.464844 159.148438 160.300781 C 159.515625 160.132812 159.898438 160.117188 160.300781 160.250000 C 160.699219 160.417969 160.984375 160.683594 161.148438 161.050781 C 161.316406 161.417969 161.332031 161.800781 161.199219 162.199219 C 161.035156 162.601562 160.765625 162.882812 160.398438 163.050781 C 160.035156 163.214844 159.648438 163.234375 159.250000 163.101562 C 158.851562 162.933594 158.566406 162.667969 158.398438 162.300781 C 158.234375 161.933594 158.214844 161.550781 158.351562 161.148438 "/>
    <path style=" stroke:none;fill-rule:evenodd;fill:rgb(15.686275%,8.627451%,5.882353%);fill-opacity:1;" d="M 156.449219 165.050781 C 156.316406 165.617188 156.316406 166.285156 156.449219 167.050781 C 156.550781 167.785156 156.800781 168.449219 157.199219 169.050781 C 157.601562 169.617188 158.117188 169.933594 158.750000 170.000000 C 159.382812 170.066406 159.898438 169.933594 160.300781 169.601562 C 160.535156 169.300781 160.632812 168.949219 160.601562 168.550781 C 160.601562 168.484375 160.582031 168.433594 160.550781 168.398438 C 160.550781 168.398438 160.535156 168.398438 160.500000 168.398438 C 160.500000 168.464844 160.515625 168.515625 160.550781 168.550781 C 160.582031 168.949219 160.464844 169.265625 160.199219 169.500000 C 159.867188 169.867188 159.382812 170.015625 158.750000 169.949219 C 158.148438 169.882812 157.648438 169.566406 157.250000 169.000000 C 156.851562 168.433594 156.601562 167.785156 156.500000 167.050781 C 156.398438 166.285156 156.417969 165.617188 156.550781 165.050781 C 156.882812 163.648438 157.449219 162.601562 158.250000 161.898438 C 159.082031 161.234375 159.898438 160.800781 160.699219 160.601562 C 161.667969 160.332031 162.683594 160.234375 163.750000 160.300781 C 164.851562 160.367188 165.898438 160.582031 166.898438 160.949219 C 166.933594 160.917969 166.949219 160.898438 166.949219 160.898438 C 165.917969 160.535156 164.867188 160.300781 163.800781 160.199219 C 162.699219 160.132812 161.667969 160.234375 160.699219 160.500000 C 159.867188 160.734375 159.035156 161.183594 158.199219 161.851562 C 157.398438 162.550781 156.816406 163.617188 156.449219 165.050781 "/>
    <path style=" stroke:none;fill-rule:evenodd;fill:rgb(15.686275%,8.627451%,5.882353%);fill-opacity:1;" d="M 143.351562 136.000000 C 142.617188 135.300781 141.765625 134.750000 140.800781 134.351562 C 139.867188 133.917969 138.949219 133.683594 138.050781 133.648438 C 137.117188 133.617188 136.332031 133.800781 135.699219 134.199219 C 135.433594 134.398438 135.265625 134.617188 135.199219 134.851562 C 135.167969 135.117188 135.300781 135.367188 135.601562 135.601562 C 135.867188 135.734375 136.132812 135.800781 136.398438 135.800781 C 136.667969 135.800781 136.617188 136.000000 136.250000 136.398438 C 135.785156 136.800781 135.183594 136.964844 134.449219 136.898438 C 133.683594 136.832031 133.035156 136.714844 132.500000 136.550781 C 132.898438 136.882812 133.484375 137.167969 134.250000 137.398438 C 135.050781 137.667969 135.816406 137.785156 136.550781 137.750000 C 137.316406 137.750000 137.851562 137.500000 138.148438 137.000000 C 138.250000 136.734375 138.300781 136.484375 138.300781 136.250000 C 138.300781 136.050781 138.417969 135.867188 138.648438 135.699219 C 139.515625 135.167969 140.316406 134.949219 141.050781 135.050781 C 141.785156 135.117188 142.515625 135.417969 143.250000 135.949219 L 143.351562 136.000000 "/>
    <path style=" stroke:none;fill-rule:evenodd;fill:rgb(15.686275%,8.627451%,5.882353%);fill-opacity:1;" d="M 187.449219 162.000000 L 187.398438 161.550781 C 182.632812 161.949219 178.300781 161.667969 174.398438 160.699219 C 170.500000 159.734375 166.917969 158.050781 163.648438 155.648438 C 161.785156 154.285156 160.082031 152.750000 158.550781 151.050781 C 156.984375 149.382812 155.500000 147.683594 154.101562 145.949219 C 153.035156 144.648438 151.933594 143.351562 150.800781 142.050781 C 149.667969 140.750000 148.464844 139.515625 147.199219 138.351562 C 146.566406 137.785156 145.785156 137.167969 144.851562 136.500000 C 143.917969 135.867188 142.898438 135.367188 141.800781 135.000000 C 140.734375 134.632812 139.648438 134.566406 138.550781 134.800781 L 138.648438 135.199219 C 139.683594 135.000000 140.714844 135.082031 141.750000 135.449219 C 142.785156 135.816406 143.750000 136.300781 144.648438 136.898438 C 145.550781 137.535156 146.300781 138.132812 146.898438 138.699219 C 148.167969 139.832031 149.351562 141.050781 150.449219 142.351562 C 151.582031 143.617188 152.683594 144.917969 153.750000 146.250000 C 155.183594 147.984375 156.667969 149.699219 158.199219 151.398438 C 159.765625 153.066406 161.484375 154.601562 163.351562 156.000000 C 166.714844 158.433594 170.367188 160.132812 174.300781 161.101562 C 178.234375 162.101562 182.617188 162.398438 187.449219 162.000000 "/>
    <path style=" stroke:none;fill-rule:evenodd;fill:rgb(15.686275%,8.627451%,5.882353%);fill-opacity:1;" d="M 189.601562 160.351562 C 187.667969 161.449219 185.832031 161.832031 184.101562 161.500000 C 182.367188 161.167969 180.785156 160.367188 179.351562 159.101562 C 177.882812 157.867188 176.566406 156.398438 175.398438 154.699219 C 174.234375 153.035156 173.234375 151.398438 172.398438 149.800781 C 171.464844 147.964844 170.285156 146.433594 168.851562 145.199219 C 167.417969 143.964844 165.617188 143.148438 163.449219 142.750000 C 162.484375 142.648438 161.316406 142.765625 159.949219 143.101562 C 158.617188 143.464844 157.316406 143.734375 156.050781 143.898438 C 154.750000 144.101562 153.734375 143.917969 153.000000 143.351562 C 153.898438 144.515625 154.816406 145.332031 155.750000 145.800781 C 156.683594 146.265625 157.667969 146.582031 158.699219 146.750000 C 159.734375 146.949219 160.832031 147.265625 162.000000 147.699219 C 163.167969 148.167969 164.117188 148.898438 164.851562 149.898438 C 165.550781 150.933594 166.214844 152.000000 166.851562 153.101562 C 167.484375 154.199219 168.214844 155.148438 169.050781 155.949219 C 172.117188 158.582031 174.898438 160.332031 177.398438 161.199219 C 179.898438 162.035156 182.066406 162.367188 183.898438 162.199219 C 185.699219 162.000000 187.101562 161.667969 188.101562 161.199219 C 189.066406 160.699219 189.566406 160.417969 189.601562 160.351562 "/>
    <path style=" stroke:none;fill-rule:evenodd;fill:rgb(15.686275%,8.627451%,5.882353%);fill-opacity:1;" d="M 180.550781 161.101562 C 178.851562 160.265625 177.433594 159.300781 176.300781 158.199219 C 175.167969 157.132812 174.082031 155.851562 173.050781 154.351562 C 172.382812 153.351562 171.785156 152.367188 171.250000 151.398438 C 170.714844 150.433594 170.082031 149.582031 169.351562 148.851562 C 168.582031 148.117188 167.582031 147.566406 166.351562 147.199219 C 165.816406 147.066406 165.250000 146.917969 164.648438 146.750000 C 164.082031 146.582031 163.433594 146.535156 162.699219 146.601562 C 163.500000 146.867188 164.265625 147.199219 165.000000 147.601562 C 165.734375 148.035156 166.382812 148.433594 166.949219 148.800781 C 167.648438 149.300781 168.234375 149.898438 168.699219 150.601562 C 169.199219 151.332031 169.667969 152.066406 170.101562 152.800781 C 171.632812 155.132812 173.199219 156.898438 174.800781 158.101562 C 176.398438 159.300781 177.750000 160.101562 178.851562 160.500000 C 179.949219 160.933594 180.515625 161.132812 180.550781 161.101562 "/>
    <path style=" stroke:none;fill-rule:evenodd;fill:rgb(15.686275%,8.627451%,5.882353%);fill-opacity:1;" d="M 178.550781 164.351562 C 177.785156 164.351562 176.785156 164.433594 175.550781 164.601562 C 174.351562 164.734375 173.132812 164.964844 171.898438 165.300781 C 170.667969 165.632812 169.617188 166.101562 168.750000 166.699219 C 167.882812 167.265625 167.417969 167.964844 167.351562 168.800781 C 167.316406 169.667969 167.867188 170.683594 169.000000 171.851562 C 169.500000 172.285156 170.167969 172.734375 171.000000 173.199219 C 171.867188 173.632812 172.582031 174.148438 173.148438 174.750000 C 173.714844 175.351562 173.816406 176.082031 173.449219 176.949219 C 173.015625 177.714844 172.265625 178.148438 171.199219 178.250000 C 170.132812 178.316406 169.015625 178.250000 167.851562 178.050781 C 166.714844 177.816406 165.800781 177.648438 165.101562 177.550781 C 165.867188 177.882812 166.949219 178.199219 168.351562 178.500000 C 169.750000 178.765625 171.199219 178.898438 172.699219 178.898438 C 174.199219 178.867188 175.500000 178.566406 176.601562 178.000000 C 177.699219 177.433594 178.332031 176.449219 178.500000 175.050781 C 178.566406 173.917969 178.214844 173.117188 177.449219 172.648438 C 176.683594 172.183594 175.800781 171.832031 174.800781 171.601562 C 173.832031 171.367188 173.035156 171.015625 172.398438 170.550781 C 171.433594 169.617188 171.132812 168.699219 171.500000 167.800781 C 171.898438 166.933594 172.699219 166.250000 173.898438 165.750000 L 178.550781 164.351562 "/>
  </g>
  <g id="surface4">
    <text style="fill:rgb(40,22,15)" font-family="Helvetica" font-size="50" transform="matrix(1,0,0,1,42.46582,224.65)" ><![CDATA[Comedor Familiar]]></text>
    <text style="fill:rgb(151,200,196)" font-family="Helvetica" font-size="35" transform="matrix(1,0,0,1,199.232176,272)" ><![CDATA[Gaby]]></text>
  </g>
</svg>